# xmcd
#
# Track frame offsets:
#	150
#	24162
#	57181
#	84213
#	115548
#	144613
#	175255
#	204175
#	229961
#	258992
#	288288
#	314980
#
# Disc length: 4458 seconds
#
# Revision: 4
# Processed by: cddbd v1.5.2PL0 Copyright (c) Steve Scherf et al.
# Submitted via: audiograbber 1.82.01
#
DISCID=9e11680c
DTITLE=Dj Selection Vol. 6 (The History Of House Music Part.3) - Www.doityourse
DTITLE=lf.it
DYEAR=2004
DGENRE=HOUSE
TTITLE0=Modjo - Lady (Hear Me Tonight)
TTITLE1=Negrocan  - Cada Vez
TTITLE2=The Bucketheads  - The Bomb! (These Sounds Fall Into My Mind)
TTITLE3=The Heartists  - Belo Horizonti
TTITLE4=David Morales Presents The Face - Needin' You
TTITLE5=De'lacy  - Hideway
TTITLE6=Tom Jones  - Sex Bomb
TTITLE7=Alex Party  - Wrap Me Up
TTITLE8=Hacienda - Sabor
TTITLE9=Eddie Amador  - House Music
TTITLE10=Whirlpool Productions  - From: Disco To: Disco
TTITLE11=Heavy D and The Boyz - Now That We've Found Love
EXTD=YEAR: 2004
EXTT0=
EXTT1=
EXTT2=
EXTT3=
EXTT4=
EXTT5=
EXTT6=
EXTT7=
EXTT8=
EXTT9=
EXTT10=
EXTT11=
PLAYORDER=
